<svg width="360" height="340" xmlns="http://www.w3.org/2000/svg" xmlns:xlink="http://www.w3.org/1999/xlink" preserveAspectRatio="xMidYMid meet">
 <defs>
  <path id="b3JtJ817K" d="m410.880005,316.160004c-1.920013,0 -3.200012,0.639984 -4.480011,1.919983c-17.919983,16 -48.639984,30.720001 -85.759979,30.720001c0,0 0,0 0,0c-37.120026,0 -67.200012,-14.720001 -85.76001,-30.720001c-1.279999,-1.279999 -3.200012,-1.919983 -5.12001,-1.919983c-4.479996,0 -7.039993,3.839996 -7.039993,7.679993c0,3.200012 1.919998,5.76001 3.839996,8.320007c10.880005,16 43.519989,42.880005 93.440002,42.880005c0,0 0,0 0,0c49.920013,0 82.559998,-26.880005 93.440002,-42.880005c1.919983,-1.920013 4.480011,-5.76001 4.480011,-8.959991c0,-3.840027 -3.200012,-7.040009 -7.040009,-7.040009z"/>
  <path id="e33gkq07d" d="m334.730011,134.919998l7.23999,0.630005l7.149994,0.889999l7.059998,1.119995l6.960022,1.369995l6.849976,1.590012l6.740021,1.819992l6.619995,2.040009l6.5,2.25l6.369995,2.470001l6.230011,2.669998l6.099976,2.869995l5.950012,3.059998l5.790009,3.26001l5.639984,3.439987l5.480011,3.630005l5.309998,3.790009l5.130005,3.969986l4.949982,4.130005l4.77002,4.290009l4.570007,4.449997l4.379974,4.589996l4.170013,4.740005l3.970001,4.87999l3.75,5.01001l3.529999,5.139999l3.299988,5.269989l3.070007,5.380005l2.839996,5.5l2.589996,5.610001l2.350006,5.710007l2.089996,5.799988l1.830017,5.910004l1.559998,5.990005l1.289978,6.070007l1.02002,6.149994l0.72998,6.220001l0.440002,6.299988l0.150024,6.350006l-0.040009,3.450012l-0.130005,3.419983l-0.209991,3.410004l-0.300018,3.380005l-0.379974,3.369995l-0.460022,3.330017l-0.549988,3.319977l-0.619995,3.290009l-0.700012,3.269989l-0.779999,3.240021l-0.859985,3.209991l-0.930023,3.190002l-1.009979,3.160004l-1.089996,3.130005l-1.150024,3.109985l-1.22998,3.070007l-1.309998,3.040009l-1.370026,3.009979l-1.449982,2.980011l-1.51001,2.940002l-1.579987,2.910004l-1.649994,2.880005l-1.720001,2.839996l-1.779999,2.809998l-1.850006,2.769989l-1.910004,2.730011l-1.970001,2.690002l-2.040009,2.660004l-2.089996,2.609985l-2.160004,2.579987l-2.220001,2.540009l-2.269989,2.48999l-2.330017,2.450012l-2.389984,2.410004l-2.450012,2.369995l-2.5,2.320007l-2.549988,2.269989l-2.610016,2.230011l-2.659973,2.179993l-2.710022,2.140015l-0.190002,0.149994l-0.179993,0.139984l-0.179993,0.150024l-0.179993,0.159973l-0.170013,0.150024l-0.160004,0.160004l-0.160004,0.159973l-0.149994,0.160004l-0.149994,0.160004l-0.140015,0.170013l-0.129974,0.169983l-0.130005,0.170013l-0.130005,0.169983l-0.110016,0.180023l-0.109985,0.179993l-0.110016,0.179993l-0.089996,0.179993l-0.089996,0.190002l-0.079987,0.190002l-0.080017,0.190002l-0.069977,0.190002l-0.060028,0.200012l-0.049988,0.199982l-0.049988,0.200012l-0.040009,0.199982l-0.029999,0.210022l-0.019989,0.199982l-0.02002,0.210022l0,0.220001l0,0.209991l0.01001,0.220001l0.019989,0.220001l0.029999,0.220001l0.029999,0.220001l0.050018,0.22998l0.049988,0.230011l0.059998,0.230011l0.080017,0.22998l0.079987,0.240021l0.089996,0.23999l0.399994,1.23999l0.420013,1.220001l0.450012,1.209991l0.469971,1.190002l0.5,1.170013l0.52002,1.149994l0.540009,1.140015l0.569977,1.119995l0.580017,1.100006l0.609985,1.089996l0.630005,1.069977l0.649994,1.050018l0.660004,1.029999l0.690002,1.019989l0.700012,1l0.720001,0.980011l0.73999,0.959991l0.76001,0.940002l0.769989,0.929993l0.779999,0.910004l0.799988,0.890015l0.810028,0.869995l0.829987,0.859985l0.839996,0.840027l0.850006,0.809998l0.859985,0.799988l0.870026,0.790009l0.889984,0.759979l0.890015,0.740021l0.899994,0.72998l0.910004,0.710022l0.919983,0.690002l0.920013,0.669983l0.929993,0.649994l0.940002,0.630005l0.950012,0.619995l0.939972,0.589996l0.960022,0.580017l0.949982,0.549988l0.960022,0.540009l0.23999,0.100006l0.230011,0.109985l0.22998,0.110016l0.220001,0.119995l0.220001,0.130005l0.209991,0.130005l0.210022,0.139984l0.199982,0.149994l0.200012,0.160004l0.190002,0.160004l0.190002,0.170013l0.179993,0.169983l0.170013,0.179993l0.169983,0.190002l0.170013,0.200012l0.149994,0.200012l0.160004,0.199982l0.139984,0.220001l0.149994,0.220001l0.130005,0.220001l0.130005,0.230011l0.119995,0.23999l0.119995,0.23999l0.110016,0.25l0.100006,0.25l0.100006,0.26001l0.089996,0.269989l0.089996,0.27002l0.079987,0.279999l0.070007,0.279999l0.070007,0.290009l0.049988,0.289978l0.059998,0.300018l0.040009,0.299988l0.040009,0.309998l0.029999,0.320007l0.029999,0.309998l0.019989,0.329987l0.01001,0.330017l0,0.329987l-0.01001,0.480011l-0.019989,0.480011l-0.040009,0.47998l-0.049988,0.470001l-0.059998,0.480011l-0.090027,0.470001l-0.099976,0.470001l-0.110016,0.459991l-0.130005,0.459991l-0.149994,0.450012l-0.160004,0.449982l-0.190002,0.440002l-0.190002,0.430023l-0.220001,0.429993l-0.22998,0.410004l-0.26001,0.410004l-0.269989,0.399994l-0.290009,0.389984l-0.299988,0.370026l-0.330017,0.369995l-0.350006,0.349976l-0.359985,0.350006l-0.390015,0.320007l-0.399994,0.320007l-0.429993,0.299988l-0.440002,0.279999l-0.470001,0.27002l-0.480011,0.25l-0.509979,0.23999l-0.529999,0.220001l-0.550018,0.199982l-0.569977,0.180023l-0.600006,0.169983l-0.619995,0.140015l-0.630005,0.119995l-0.670013,0.100006l-0.679993,0.079987l-0.709991,0.059998l-0.730011,0.040009l-0.76001,0.01001l-2.410004,-0.02002l-2.419983,-0.069977l-2.440002,-0.110016l-2.450012,-0.160004l-2.459991,-0.190002l-2.470001,-0.23999l-2.470001,-0.279999l-2.47998,-0.320007l-2.490021,-0.350006l-2.48999,-0.399994l-2.48999,-0.429993l-2.490021,-0.470001l-2.48999,-0.51001l-2.480011,-0.529999l-2.47998,-0.579987l-2.480011,-0.600006l-2.459991,-0.640015l-2.460022,-0.669983l-2.439972,-0.700012l-2.430023,-0.72998l-2.419983,-0.76001l-2.399994,-0.779999l-2.380005,-0.820007l-2.360016,-0.839996l-2.350006,-0.859985l-2.319977,-0.890015l-2.300018,-0.919983l-2.269989,-0.930023l-2.23999,-0.959991l-2.220001,-0.980011l-2.190002,-1l-2.150024,-1.019989l-2.119995,-1.040009l-2.089996,-1.049988l-2.049988,-1.080017l-2.02002,-1.089996l-1.970001,-1.099976l-1.929993,-1.120026l-1.889984,-1.129974l-1.850006,-1.150024l-0.190002,-0.089996l-0.190002,-0.100006l-0.190002,-0.089996l-0.179993,-0.079987l-0.179993,-0.089996l-0.190002,-0.080017l-0.179993,-0.079987l-0.170013,-0.080017l-0.179993,-0.069977l-0.180023,-0.070007l-0.179993,-0.070007l-0.169983,-0.059998l-0.180023,-0.059998l-0.179993,-0.059998l-0.169983,-0.059998l-0.180023,-0.050018l-0.169983,-0.049988l-0.179993,-0.040009l-0.180023,-0.039978l-0.179993,-0.040009l-0.179993,-0.029999l-0.179993,-0.029999l-0.190002,-0.029999l-0.180023,-0.02002l-0.189972,-0.019989l-0.190002,-0.019989l-0.190002,-0.01001l-0.190002,-0.01001l-0.200012,0l-0.199982,0l-0.200012,0.01001l-0.209991,0l-0.210022,0.019989l-0.209991,0.02002l-0.220001,0.019989l-0.220001,0.029999l-0.220001,0.029999l-0.22998,0.029999l-0.230011,0.040009l-0.23999,0.049988l-0.910004,0.140015l-0.920013,0.139984l-0.919983,0.140015l-0.920013,0.139984l-0.919983,0.130005l-0.920013,0.130005l-0.929993,0.130005l-0.929993,0.119995l-0.930023,0.119995l-0.929993,0.119995l-0.929993,0.120026l-0.940002,0.109985l-0.940002,0.109985l-0.940002,0.100006l-0.940002,0.110016l-0.940002,0.100006l-0.940002,0.089996l-0.949982,0.089996l-0.940002,0.089996l-0.950012,0.089996l-0.949982,0.079987l-0.950012,0.080017l-0.950012,0.079987l-0.949982,0.070007l-0.950012,0.059998l-0.959991,0.070007l-0.950012,0.059998l-0.959991,0.049988l-0.950012,0.050018l-0.959991,0.049988l-0.959991,0.040009l-0.959991,0.040009l-0.950012,0.039978l-0.959991,0.029999l-0.960022,0.02002l-0.959991,0.019989l-0.959991,0.02002l-0.959991,0.009979l-0.960022,0.01001l-0.959991,0l-7.399994,-0.130005l-7.330017,-0.389984l-7.23999,-0.630005l-7.149994,-0.890015l-7.059998,-1.119995l-6.960022,-1.369995l-6.849976,-1.589996l-6.740021,-1.820007l-6.619995,-2.040009l-6.5,-2.25l-6.369995,-2.470001l-6.229996,-2.669983l-6.100006,-2.869995l-5.949997,-3.060028l-5.789993,-3.259979l-5.639999,-3.440002l-5.480011,-3.630005l-5.309998,-3.790009l-5.130005,-3.970001l-4.949997,-4.129974l-4.770004,-4.290009l-4.569992,-4.450012l-4.380005,-4.589996l-4.169998,-4.73999l-3.970001,-4.880005l-3.75,-5.01001l-3.529999,-5.139984l-3.300003,-5.27002l-3.069992,-5.379974l-2.839996,-5.5l-2.590012,-5.610016l-2.349991,-5.709991l-2.089996,-5.800018l-1.830002,-5.910004l-1.560013,-5.98999l-1.289993,-6.070007l-1.020004,-6.149994l-0.729996,-6.220001l-0.440002,-6.299988l-0.149994,-6.350006l0.149994,-6.399994l0.440002,-6.330017l0.729996,-6.259979l1.020004,-6.190002l1.289993,-6.100006l1.560013,-6.009995l1.830002,-5.919998l2.089996,-5.830002l2.349991,-5.720001l2.590012,-5.62001l2.839996,-5.509995l3.069992,-5.380005l3.300003,-5.269989l3.529999,-5.139999l3.75,-5.01001l3.970001,-4.87999l4.169998,-4.730011l4.380005,-4.580002l4.569992,-4.439987l4.770004,-4.280014l4.949997,-4.119995l5.130005,-3.949997l5.309998,-3.779999l5.480011,-3.610001l5.639999,-3.430008l5.789993,-3.23999l5.949997,-3.050003l6.100006,-2.850006l6.229996,-2.659988l6.369995,-2.450012l6.5,-2.23999l6.619995,-2.029999l6.740021,-1.800003l6.849976,-1.580002l6.960022,-1.350006l7.059998,-1.119995l7.149994,-0.880005l7.23999,-0.62999l7.330017,-0.380005l7.399994,-0.130005l7.399994,0.130005l7.330017,0.389999zm-26.990021,31.889999l-6.019989,0.5l-5.959991,0.699997l-5.869995,0.889999l-5.790009,1.070007l-5.700012,1.259995l-5.609985,1.440002l-5.51001,1.610001l-5.410004,1.779999l-5.299988,1.949997l-5.190002,2.110001l-5.070007,2.270004l-4.949997,2.430008l-4.820007,2.569992l-4.699997,2.729996l-4.550003,2.860001l-4.419998,3.01001l-4.269989,3.139999l-4.12001,3.269989l-3.970001,3.400009l-3.799988,3.520004l-3.639999,3.639999l-3.480011,3.759995l-3.300003,3.869995l-3.119995,3.970001l-2.929993,4.080002l-2.75,4.180008l-2.560013,4.269989l-2.359985,4.37001l-2.160004,4.449997l-1.949997,4.539993l-1.740005,4.62001l-1.520004,4.690002l-1.300003,4.759979l-1.069992,4.830017l-0.850006,4.899994l-0.610001,4.959991l-0.369995,5.01001l-0.119995,5.059998l0.119995,5.059998l0.369995,5.01001l0.610001,4.959991l0.850006,4.899994l1.069992,4.830017l1.300003,4.759979l1.520004,4.690002l1.740005,4.619995l1.949997,4.540009l2.160004,4.450012l2.359985,4.369995l2.560013,4.269989l2.75,4.180023l2.929993,4.079987l3.119995,3.970001l3.300003,3.869995l3.480011,3.76001l3.639999,3.639984l3.799988,3.52002l3.970001,3.399994l4.12001,3.269989l4.269989,3.140015l4.419998,3.009979l4.550003,2.860016l4.699997,2.730011l4.820007,2.569977l4.949997,2.430023l5.070007,2.269989l5.190002,2.109985l5.299988,1.950012l5.410004,1.779999l5.51001,1.610016l5.609985,1.439972l5.700012,1.26001l5.790009,1.070007l5.869995,0.889984l5.959991,0.700012l6.019989,0.5l6.100006,0.309998l6.160004,0.100006l0.959991,0l0.960022,-0.01001l0.959991,-0.009979l0.959991,-0.02002l0.959991,-0.019989l0.960022,-0.029999l0.959991,-0.029999l0.950012,-0.029999l0.959991,-0.040009l0.959991,-0.049988l0.959991,-0.050018l0.950012,-0.059998l0.959991,-0.059998l0.950012,-0.059998l0.959991,-0.070007l0.950012,-0.070007l0.949982,-0.079987l0.950012,-0.089996l0.950012,-0.089996l0.949982,-0.089996l0.950012,-0.100006l0.940002,-0.100006l0.949982,-0.109985l0.940002,-0.110016l0.940002,-0.119995l0.940002,-0.119995l0.940002,-0.130005l0.940002,-0.130005l0.940002,-0.139984l0.929993,-0.140015l0.929993,-0.149994l0.930023,-0.149994l0.929993,-0.150024l0.929993,-0.159973l0.920013,-0.170013l0.919983,-0.170013l0.920013,-0.179993l0.919983,-0.179993l0.920013,-0.179993l0.910004,-0.190002l0.329987,-0.089996l0.330017,-0.089996l0.319977,-0.080017l0.309998,-0.070007l0.300018,-0.059998l0.299988,-0.059998l0.290009,-0.049988l0.290009,-0.040009l0.279999,-0.040009l0.269989,-0.029999l0.269989,-0.019989l0.26001,-0.019989l0.25,-0.01001l0.25,-0.01001l0.25,0.01001l0.23999,0l0.230011,0.019989l0.230011,0.02002l0.220001,0.029999l0.220001,0.029999l0.209991,0.039978l0.209991,0.040009l0.209991,0.050018l0.200012,0.059998l0.190002,0.059998l0.190002,0.069977l0.190002,0.080017l0.179993,0.070007l0.179993,0.089996l0.180023,0.089996l0.169983,0.100006l0.170013,0.099976l0.169983,0.100006l0.160004,0.110016l0.160004,0.119995l0.149994,0.119995l0.160004,0.130005l0.149994,0.130005l0.140015,0.139984l0.149994,0.140015l1.130005,0.919983l1.169983,0.920013l1.210022,0.929993l1.259979,0.940002l1.290009,0.940002l1.320007,0.940002l1.359985,0.940002l1.380005,0.929993l1.399994,0.940002l1.430023,0.929993l1.449982,0.920013l1.459991,0.919983l1.470001,0.900024l1.490021,0.899994l1.48999,0.880005l1.48999,0.859985l1.5,0.850006l1.490021,0.839996l1.48999,0.809998l1.480011,0.790009l1.470001,0.769989l1.459991,0.73999l1.440002,0.720001l1.419983,0.690002l1.390015,0.660004l1.380005,0.630005l1.339996,0.600006l1.309998,0.559998l1.279999,0.529999l1.23999,0.48999l1.200012,0.450012l1.160004,0.410004l1.109985,0.369995l1.059998,0.320007l1.01001,0.279999l0.959991,0.23999l0.890015,0.179993l0.839996,0.130005l0.769989,0.080017l0.710022,0.029999l0.049988,0l0.049988,0l0.050018,-0.01001l0.059998,-0.01001l0.059998,-0.009979l0.049988,-0.01001l0.059998,-0.019989l0.070007,-0.02002l0.059998,-0.019989l0.059998,-0.02002l0.059998,-0.029999l0.070007,-0.019989l0.059998,-0.029999l0.059998,-0.040009l0.070007,-0.029999l0.059998,-0.039978l0.070007,-0.040009l0.059998,-0.040009l0.059998,-0.040009l0.059998,-0.049988l0.059998,-0.049988l0.059998,-0.050018l0.050018,-0.049988l0.059998,-0.059998l0.049988,-0.059998l0.050018,-0.059998l0.049988,-0.060028l0.049988,-0.069977l0.040009,-0.070007l0.040009,-0.070007l0.040009,-0.070007l0.029999,-0.079987l0.029999,-0.079987l0.029999,-0.080017l0.019989,-0.079987l0.019989,-0.089996l0.02002,-0.080017l0.009979,-0.089996l0.01001,-0.100006l0,-0.089996l0,-0.049988l0,-0.050018l0,-0.039978l0,-0.050018l0,-0.049988l0,-0.050018l0,-0.049988l-0.01001,-0.040009l0,-0.049988l0,-0.050018l0,-0.049988l-0.009979,-0.049988l0,-0.040009l-0.01001,-0.049988l0,-0.050018l-0.01001,-0.049988l-0.009979,-0.050018l-0.01001,-0.039978l-0.01001,-0.050018l-0.009979,-0.049988l-0.01001,-0.050018l-0.019989,-0.049988l-0.01001,-0.040009l-0.019989,-0.049988l-0.02002,-0.050018l-0.019989,-0.049988l-0.019989,-0.049988l-0.02002,-0.040009l-0.019989,-0.049988l-0.029999,-0.050018l-0.029999,-0.049988l-0.029999,-0.050018l-0.029999,-0.039978l-0.029999,-0.050018l-0.040009,-0.049988l-0.040009,-0.050018l-0.040009,-0.049988l-0.039978,-0.040009l-0.040009,-0.049988l-0.049988,-0.049988l-0.670013,-0.880005l-0.649994,-0.890015l-0.649994,-0.919983l-0.640015,-0.940002l-0.619995,-0.960022l-0.619995,-0.970001l-0.600006,-0.97998l-0.589996,-1l-0.580017,-1.01001l-0.559998,-1.019989l-0.549988,-1.029999l-0.540009,-1.029999l-0.519989,-1.040009l-0.51001,-1.040009l-0.5,-1.039978l-0.47998,-1.040009l-0.460022,-1.040009l-0.449982,-1.040009l-0.430023,-1.029999l-0.419983,-1.019989l-0.399994,-1.019989l-0.380005,-1l-0.369995,-0.990021l-0.339996,-0.98999l-0.330017,-0.959991l-0.309998,-0.950012l-0.290009,-0.929993l-0.279999,-0.910004l-0.25,-0.890015l-0.22998,-0.869995l-0.210022,-0.839996l-0.190002,-0.820007l-0.169983,-0.789978l-0.149994,-0.76001l-0.130005,-0.720001l-0.100006,-0.700012l-0.079987,-0.659973l-0.059998,-0.620026l-0.040009,-0.589996l-0.01001,-0.549988l0,-0.23999l0.019989,-0.240021l0.02002,-0.23999l0.029999,-0.23999l0.049988,-0.240021l0.040009,-0.22998l0.059998,-0.240021l0.070007,-0.22998l0.070007,-0.240021l0.079987,-0.22998l0.089996,-0.230011l0.089996,-0.230011l0.100006,-0.220001l0.110016,-0.22998l0.119995,-0.220001l0.109985,-0.220001l0.130005,-0.209991l0.130005,-0.220001l0.139984,-0.200012l0.140015,-0.209991l0.149994,-0.200012l0.149994,-0.199982l0.150024,-0.190002l0.159973,-0.200012l0.170013,-0.179993l0.160004,-0.179993l0.169983,-0.180023l0.180023,-0.169983l0.169983,-0.170013l0.179993,-0.160004l0.180023,-0.160004l0.179993,-0.149994l0.190002,-0.139984l0.190002,-0.140015l0.190002,-0.130005l0.179993,-0.129974l0.200012,-0.120026l0.189972,-0.109985l0.190002,-0.110016l0.190002,-0.099976l2.710022,-1.710022l2.659973,-1.75l2.620026,-1.809998l2.559998,-1.859985l2.509979,-1.910004l2.460022,-1.959991l2.399994,-2l2.339996,-2.050018l2.299988,-2.089996l2.230011,-2.139984l2.179993,-2.180023l2.110016,-2.22998l2.059998,-2.26001l1.98999,-2.309998l1.940002,-2.339996l1.869995,-2.380005l1.800018,-2.420013l1.73999,-2.459991l1.669983,-2.48999l1.610016,-2.529999l1.540009,-2.559998l1.470001,-2.589996l1.389984,-2.630005l1.330017,-2.649994l1.25,-2.690002l1.179993,-2.710022l1.109985,-2.75l1.029999,-2.769989l0.950012,-2.790009l0.880005,-2.819977l0.799988,-2.840027l0.720001,-2.869995l0.630005,-2.889984l0.559998,-2.910004l0.470001,-2.929993l0.390015,-2.950012l0.299988,-2.970001l0.220001,-2.980011l0.139984,-3l0.040009,-3.019989l-0.119995,-5.059998l-0.369995,-5.01001l-0.610016,-4.959991l-0.849976,-4.899994l-1.070007,-4.830017l-1.300018,-4.759979l-1.519989,-4.690002l-1.73999,-4.62001l-1.950012,-4.539993l-2.160004,-4.449997l-2.359985,-4.37001l-2.559998,-4.269989l-2.75,-4.180008l-2.930023,-4.080002l-3.119995,-3.970001l-3.299988,-3.869995l-3.480011,-3.759995l-3.639984,-3.639999l-3.800018,-3.520004l-3.970001,-3.400009l-4.119995,-3.269989l-4.269989,-3.139999l-4.420013,-3.01001l-4.549988,-2.860001l-4.700012,-2.729996l-4.819977,-2.569992l-4.950012,-2.430008l-5.070007,-2.270004l-5.190002,-2.110001l-5.299988,-1.949997l-5.410004,-1.779999l-5.51001,-1.610001l-5.609985,-1.440002l-5.700012,-1.259995l-5.790009,-1.070007l-5.869995,-0.889999l-5.959991,-0.699997l-6.019989,-0.5l-6.100006,-0.309998l-6.160004,-0.100006l-6.160004,0.100006l-6.100006,0.309998z"/>
  <path id="b35jNywSm" d="m410.880005,255.339996c-1.920013,0 -3.200012,-0.639999 -4.480011,-1.919998c-17.919983,-16 -48.639984,-30.720001 -85.759979,-30.720001c0,0 0,0 0,0c-37.120026,0 -67.200012,14.720001 -85.76001,30.720001c-1.279999,1.279999 -3.200012,1.919998 -5.12001,1.919998c-4.479996,0 -7.039993,-3.839996 -7.039993,-7.679993c0,-3.199997 1.919998,-5.76001 3.839996,-8.320007c10.880005,-16 43.519989,-42.87999 93.440002,-42.87999c0,0 0,0 0,0c49.920013,0 82.559998,26.87999 93.440002,42.87999c1.919983,1.919998 4.480011,5.76001 4.480011,8.960007c0,3.839996 -3.200012,7.039993 -7.040009,7.039993z"/>
  <path id="liJtFvlpZ" d="m341.01001,248.080002c0.410004,-0.699997 4.169983,-10.990005 6.069977,-10.520004c24.160004,5.229996 47.240021,14.199997 55.060028,0.660004c0,0 0,0 0,0c7.819977,-13.550003 -11,-29.899994 -27.470001,-48.430008c-1.360016,-1.409988 5.309998,-9.199997 5.709991,-9.909988c0.949982,-1.630005 17.529999,9.190002 20.380005,11.769989c9.139984,7.950012 15.690002,16.020004 22.48999,32.270004c6.799988,16.25 2.970001,29.440002 2.970001,29.440002c-5.309998,9.199997 -11.230011,13.780014 -32.390015,13.419998c-10.679993,-0.179993 -14.720001,-0.709991 -18.189972,-1.820007c-3.400024,-1.079987 -6.240021,-2.709991 -14.25,-5.109985c-16.170013,-4.850006 -21.190002,-10.37001 -20.380005,-11.770004z"/>
  <path id="c2hrQxd5H" d="m293.640015,320.779999c-0.400024,0.700012 -4.170013,10.98999 -6.070007,10.51001c-24.149994,-5.220001 -47.230011,-14.200012 -55.050003,-0.649994c0,0 0,0 0,0c-7.820007,13.539978 11,29.889984 27.469986,48.429993c1.360016,1.410004 -5.309998,9.199982 -5.719986,9.899994c-0.940002,1.639984 -17.520004,-9.179993 -20.380005,-11.76001c-9.130005,-7.949982 -15.679993,-16.019989 -22.479996,-32.269989c-6.800003,-16.25 -2.970001,-29.440002 -2.970001,-29.440002c5.309998,-9.200012 11.229996,-13.779999 32.380005,-13.420013c10.689987,0.180023 14.729996,0.710022 18.199982,1.810028c3.390015,1.089996 6.240021,2.719971 14.25,5.119995c16.170013,4.849976 21.180023,10.359985 20.370026,11.769989z"/>
 </defs>
 <g>
  <title>background</title>
  <rect fill="none" id="canvas_background" height="342" width="362" y="-1" x="-1"/>
 </g>
 <g>
  <title>Layer 1</title>
  <use x="-138.015381" y="-131.908508" id="svg_4" fill="#000000" xlink:href="#b3JtJ817K"/>
  <use x="-138.015381" y="-131.908508" id="svg_6" stroke-opacity="0" stroke="#000000" fill-opacity="0" xlink:href="#b3JtJ817K"/>
  <use x="-138.015381" y="-131.908508" id="svg_8" fill="#000000" xlink:href="#e33gkq07d"/>
  <use x="-138.015381" y="-131.908508" id="svg_10" stroke-opacity="0" stroke="#000000" fill-opacity="0" xlink:href="#e33gkq07d"/>
  <use x="-138.015381" y="-131.908508" id="svg_12" fill="#000000" xlink:href="#b35jNywSm"/>
  <use x="-138.015381" y="-131.908508" id="svg_14" stroke-opacity="0" stroke="#000000" fill-opacity="0" xlink:href="#b35jNywSm"/>
  <use x="-138.015381" y="-131.908508" id="svg_16" fill="#000000" xlink:href="#liJtFvlpZ"/>
  <use x="-138.015381" y="-131.908508" id="svg_18" stroke-opacity="0" stroke="#000000" fill-opacity="0" xlink:href="#liJtFvlpZ"/>
  <use x="-138.015381" y="-131.908508" id="svg_20" fill="#000000" xlink:href="#c2hrQxd5H"/>
  <use x="-138.015381" y="-131.908508" id="svg_22" stroke-opacity="0" stroke="#000000" fill-opacity="0" xlink:href="#c2hrQxd5H"/>
 </g>
</svg>